REM DIRINDEX 1\2,1\3\5,1\3\6,1\4\7,1\4\8,1\4\9,1\4\10
REM DIRNAME cjc147,folder01,folder02,folder03,folder04,folder05,folder06,folder07,folder08,folder09
TITLE ""
FILE "Gold_Sentence_029_E.mp3" MP3
  TRACK 01 AUDIO
    TITLE "0:"
    INDEX 01 00:00:00
  TRACK 02 AUDIO
    TITLE "2:cjc147_3406"
    INDEX 01 00:00:13
  TRACK 03 AUDIO
    TITLE "0:"
    INDEX 01 00:05:71
